<svg width="62" height="52" viewBox="0 0 62 52" fill="none" xmlns="http://www.w3.org/2000/svg">
<g filter="url(#filter0_dd_16_134)">
<rect x="18" y="16" width="36" height="26" rx="8" fill="#33D1EA"/>
</g>
<path d="M26.8706 33H32.2953V31.6747H28.4515V24.2727H26.8706V33ZM33.5993 33H35.1419V26.4545H33.5993V33ZM34.3748 25.5256C34.8649 25.5256 35.2654 25.1506 35.2654 24.6903C35.2654 24.2259 34.8649 23.8509 34.3748 23.8509C33.8805 23.8509 33.4799 24.2259 33.4799 24.6903C33.4799 25.1506 33.8805 25.5256 34.3748 25.5256ZM38.2708 24.2727H36.7282V33H38.2708V24.2727ZM40.8159 35.4545C42.0176 35.4545 42.7122 34.8366 43.0829 33.7926L45.7122 26.4631L44.063 26.4545L42.5502 31.3977H42.4821L40.9735 26.4545H39.3372L41.7108 33.1364L41.5787 33.4901C41.2931 34.2358 40.8414 34.2869 40.1681 34.0909L39.8102 35.2926C40.019 35.3778 40.394 35.4545 40.8159 35.4545Z" fill="white"/>
<g filter="url(#filter1_dd_16_134)">
<path d="M14.0691 18.2383C13.2698 19.0376 11.9072 18.6991 11.5748 17.6188L8.83316 8.70794C8.47906 7.55704 9.55704 6.47906 10.7079 6.83316L19.6187 9.57477C20.6991 9.90718 21.0376 11.2698 20.2383 12.0691L14.0691 18.2383Z" fill="#33D1EA"/>
</g>
<defs>
<filter id="filter0_dd_16_134" x="10" y="10" width="52" height="42" filterUnits="userSpaceOnUse" color-interpolation-filters="sRGB">
<feFlood flood-opacity="0" result="BackgroundImageFix"/>
<feColorMatrix in="SourceAlpha" type="matrix" values="0 0 0 0 0 0 0 0 0 0 0 0 0 0 0 0 0 0 127 0" result="hardAlpha"/>
<feOffset dy="2"/>
<feGaussianBlur stdDeviation="4"/>
<feComposite in2="hardAlpha" operator="out"/>
<feColorMatrix type="matrix" values="0 0 0 0 0.105882 0 0 0 0 0.105882 0 0 0 0 0.101961 0 0 0 0.04 0"/>
<feBlend mode="normal" in2="BackgroundImageFix" result="effect1_dropShadow_16_134"/>
<feColorMatrix in="SourceAlpha" type="matrix" values="0 0 0 0 0 0 0 0 0 0 0 0 0 0 0 0 0 0 127 0" result="hardAlpha"/>
<feOffset dy="2"/>
<feGaussianBlur stdDeviation="4"/>
<feComposite in2="hardAlpha" operator="out"/>
<feColorMatrix type="matrix" values="0 0 0 0 0.105882 0 0 0 0 0.105882 0 0 0 0 0.101961 0 0 0 0.02 0"/>
<feBlend mode="normal" in2="effect1_dropShadow_16_134" result="effect2_dropShadow_16_134"/>
<feBlend mode="normal" in="SourceGraphic" in2="effect2_dropShadow_16_134" result="shape"/>
</filter>
<filter id="filter1_dd_16_134" x="0.764648" y="0.764679" width="27.9138" height="27.9137" filterUnits="userSpaceOnUse" color-interpolation-filters="sRGB">
<feFlood flood-opacity="0" result="BackgroundImageFix"/>
<feColorMatrix in="SourceAlpha" type="matrix" values="0 0 0 0 0 0 0 0 0 0 0 0 0 0 0 0 0 0 127 0" result="hardAlpha"/>
<feOffset dy="2"/>
<feGaussianBlur stdDeviation="4"/>
<feComposite in2="hardAlpha" operator="out"/>
<feColorMatrix type="matrix" values="0 0 0 0 0.105882 0 0 0 0 0.105882 0 0 0 0 0.101961 0 0 0 0.04 0"/>
<feBlend mode="normal" in2="BackgroundImageFix" result="effect1_dropShadow_16_134"/>
<feColorMatrix in="SourceAlpha" type="matrix" values="0 0 0 0 0 0 0 0 0 0 0 0 0 0 0 0 0 0 127 0" result="hardAlpha"/>
<feOffset dy="2"/>
<feGaussianBlur stdDeviation="4"/>
<feComposite in2="hardAlpha" operator="out"/>
<feColorMatrix type="matrix" values="0 0 0 0 0.105882 0 0 0 0 0.105882 0 0 0 0 0.101961 0 0 0 0.02 0"/>
<feBlend mode="normal" in2="effect1_dropShadow_16_134" result="effect2_dropShadow_16_134"/>
<feBlend mode="normal" in="SourceGraphic" in2="effect2_dropShadow_16_134" result="shape"/>
</filter>
</defs>
</svg>
