<svg width="101" height="52" viewBox="0 0 101 52" fill="none" xmlns="http://www.w3.org/2000/svg">
<g filter="url(#filter0_dd_16_135)">
<rect x="18" y="16" width="75" height="26" rx="8" fill="#FFB423"/>
</g>
<path d="M28.0382 33L28.7583 30.848H32.0396L32.764 33H34.4515L31.3748 24.2727H29.4231L26.3507 33H28.0382ZM29.1845 29.5781L30.3649 26.0625H30.4331L31.6135 29.5781H29.1845ZM37.0755 24.2727H35.5328V33H37.0755V24.2727ZM41.5595 33.1278C43.085 33.1278 44.1333 32.3821 44.4061 31.2443L42.9657 31.0824C42.7569 31.6364 42.2456 31.9261 41.5808 31.9261C40.5836 31.9261 39.9231 31.2699 39.9103 30.1491H44.47V29.6761C44.47 27.3793 43.0893 26.3693 41.4785 26.3693C39.6035 26.3693 38.3805 27.7457 38.3805 29.7656C38.3805 31.8196 39.5865 33.1278 41.5595 33.1278ZM39.9146 29.1094C39.9615 28.2741 40.5794 27.571 41.4998 27.571C42.3862 27.571 42.9828 28.2188 42.9913 29.1094H39.9146ZM46.9075 26.4545H45.2711L47.2143 29.7273L45.22 33H46.8564L48.2285 30.6435L49.6135 33H51.237L49.2299 29.7273L51.2029 26.4545H49.5708L48.2285 28.8707L46.9075 26.4545ZM54.2562 33.1321C55.2832 33.1321 55.8968 32.6506 56.1781 32.1009H56.2292V33H57.7122V28.6193C57.7122 26.8892 56.3017 26.3693 55.0531 26.3693C53.6767 26.3693 52.6199 26.983 52.2789 28.1761L53.7193 28.3807C53.8727 27.9332 54.3074 27.5497 55.0616 27.5497C55.7775 27.5497 56.1696 27.9162 56.1696 28.5597V28.5852C56.1696 29.0284 55.7051 29.0497 54.5502 29.1733C53.2804 29.3097 52.0659 29.6889 52.0659 31.1634C52.0659 32.4503 53.0076 33.1321 54.2562 33.1321ZM54.6568 31.9986C54.0133 31.9986 53.5531 31.7045 53.5531 31.1378C53.5531 30.5455 54.0687 30.2983 54.7591 30.2003C55.1639 30.1449 55.9735 30.0426 56.1738 29.8807V30.652C56.1738 31.3807 55.5858 31.9986 54.6568 31.9986ZM60.8059 29.1648C60.8059 28.2188 61.377 27.6733 62.1909 27.6733C62.9877 27.6733 63.465 28.1974 63.465 29.071V33H65.0076V28.8324C65.0119 27.2642 64.117 26.3693 62.7662 26.3693C61.786 26.3693 61.1127 26.8381 60.8145 27.5668H60.7377V26.4545H59.2633V33H60.8059V29.1648ZM69.0048 33.1151C70.1298 33.1151 70.6369 32.446 70.8798 31.9688H70.9735V33H72.4906V24.2727H70.9437V27.5369H70.8798C70.6454 27.0639 70.1639 26.3693 69.0091 26.3693C67.4963 26.3693 66.3074 27.554 66.3074 29.7358C66.3074 31.892 67.4622 33.1151 69.0048 33.1151ZM69.4352 31.8494C68.4167 31.8494 67.8798 30.9545 67.8798 29.7273C67.8798 28.5085 68.4082 27.6349 69.4352 27.6349C70.4281 27.6349 70.9735 28.4574 70.9735 29.7273C70.9735 30.9972 70.4196 31.8494 69.4352 31.8494ZM74.1344 33H75.677V29.152C75.677 28.321 76.3034 27.733 77.1515 27.733C77.4114 27.733 77.7353 27.7798 77.8674 27.8224V26.4034C77.7267 26.3778 77.4838 26.3608 77.3134 26.3608C76.5634 26.3608 75.937 26.7869 75.6983 27.5455H75.6301V26.4545H74.1344V33ZM81.5204 33.1278C83.046 33.1278 84.0943 32.3821 84.367 31.2443L82.9267 31.0824C82.7179 31.6364 82.2065 31.9261 81.5417 31.9261C80.5446 31.9261 79.8841 31.2699 79.8713 30.1491H84.4309V29.6761C84.4309 27.3793 83.0502 26.3693 81.4395 26.3693C79.5645 26.3693 78.3414 27.7457 78.3414 29.7656C78.3414 31.8196 79.5474 33.1278 81.5204 33.1278ZM79.8755 29.1094C79.9224 28.2741 80.5403 27.571 81.4608 27.571C82.3471 27.571 82.9437 28.2188 82.9522 29.1094H79.8755Z" fill="white"/>
<g filter="url(#filter1_dd_16_135)">
<path d="M14.0691 18.2383C13.2698 19.0376 11.9072 18.6991 11.5748 17.6188L8.83316 8.70794C8.47906 7.55704 9.55704 6.47906 10.7079 6.83316L19.6187 9.57477C20.6991 9.90718 21.0376 11.2698 20.2383 12.0691L14.0691 18.2383Z" fill="#FFB423"/>
</g>
<defs>
<filter id="filter0_dd_16_135" x="10" y="10" width="91" height="42" filterUnits="userSpaceOnUse" color-interpolation-filters="sRGB">
<feFlood flood-opacity="0" result="BackgroundImageFix"/>
<feColorMatrix in="SourceAlpha" type="matrix" values="0 0 0 0 0 0 0 0 0 0 0 0 0 0 0 0 0 0 127 0" result="hardAlpha"/>
<feOffset dy="2"/>
<feGaussianBlur stdDeviation="4"/>
<feComposite in2="hardAlpha" operator="out"/>
<feColorMatrix type="matrix" values="0 0 0 0 0.105882 0 0 0 0 0.105882 0 0 0 0 0.101961 0 0 0 0.04 0"/>
<feBlend mode="normal" in2="BackgroundImageFix" result="effect1_dropShadow_16_135"/>
<feColorMatrix in="SourceAlpha" type="matrix" values="0 0 0 0 0 0 0 0 0 0 0 0 0 0 0 0 0 0 127 0" result="hardAlpha"/>
<feOffset dy="2"/>
<feGaussianBlur stdDeviation="4"/>
<feComposite in2="hardAlpha" operator="out"/>
<feColorMatrix type="matrix" values="0 0 0 0 0.105882 0 0 0 0 0.105882 0 0 0 0 0.101961 0 0 0 0.02 0"/>
<feBlend mode="normal" in2="effect1_dropShadow_16_135" result="effect2_dropShadow_16_135"/>
<feBlend mode="normal" in="SourceGraphic" in2="effect2_dropShadow_16_135" result="shape"/>
</filter>
<filter id="filter1_dd_16_135" x="0.764671" y="0.764679" width="27.9137" height="27.9137" filterUnits="userSpaceOnUse" color-interpolation-filters="sRGB">
<feFlood flood-opacity="0" result="BackgroundImageFix"/>
<feColorMatrix in="SourceAlpha" type="matrix" values="0 0 0 0 0 0 0 0 0 0 0 0 0 0 0 0 0 0 127 0" result="hardAlpha"/>
<feOffset dy="2"/>
<feGaussianBlur stdDeviation="4"/>
<feComposite in2="hardAlpha" operator="out"/>
<feColorMatrix type="matrix" values="0 0 0 0 0.105882 0 0 0 0 0.105882 0 0 0 0 0.101961 0 0 0 0.04 0"/>
<feBlend mode="normal" in2="BackgroundImageFix" result="effect1_dropShadow_16_135"/>
<feColorMatrix in="SourceAlpha" type="matrix" values="0 0 0 0 0 0 0 0 0 0 0 0 0 0 0 0 0 0 127 0" result="hardAlpha"/>
<feOffset dy="2"/>
<feGaussianBlur stdDeviation="4"/>
<feComposite in2="hardAlpha" operator="out"/>
<feColorMatrix type="matrix" values="0 0 0 0 0.105882 0 0 0 0 0.105882 0 0 0 0 0.101961 0 0 0 0.02 0"/>
<feBlend mode="normal" in2="effect1_dropShadow_16_135" result="effect2_dropShadow_16_135"/>
<feBlend mode="normal" in="SourceGraphic" in2="effect2_dropShadow_16_135" result="shape"/>
</filter>
</defs>
</svg>
