<svg width="97" height="52" viewBox="0 0 97 52" fill="none" xmlns="http://www.w3.org/2000/svg">
<g filter="url(#filter0_dd_16_136)">
<rect x="18" y="16" width="71" height="26" rx="8" fill="#FF2E57"/>
</g>
<path d="M34.5732 27.2173C34.3047 25.2784 32.8132 24.1534 30.8786 24.1534C28.5987 24.1534 26.8814 25.8153 26.8814 28.6364C26.8814 31.4531 28.5774 33.1193 30.8786 33.1193C32.9538 33.1193 34.3303 31.777 34.5732 30.1108L32.9794 30.1023C32.7791 31.125 31.9439 31.7003 30.8999 31.7003C29.4851 31.7003 28.4709 30.6392 28.4709 28.6364C28.4709 26.6676 29.4766 25.5724 30.9041 25.5724C31.9652 25.5724 32.7962 26.1733 32.9794 27.2173H34.5732ZM37.4954 29.1648C37.4954 28.2188 38.0835 27.6733 38.9102 27.6733C39.7198 27.6733 40.1971 28.1889 40.1971 29.071V33H41.7397V28.8324C41.7397 27.2514 40.8448 26.3693 39.4854 26.3693C38.4798 26.3693 37.8406 26.8253 37.538 27.5668H37.4613V24.2727H35.9528V33H37.4954V29.1648ZM45.1957 33.1321C46.2227 33.1321 46.8363 32.6506 47.1175 32.1009H47.1687V33H48.6516V28.6193C48.6516 26.8892 47.2411 26.3693 45.9925 26.3693C44.6161 26.3693 43.5593 26.983 43.2184 28.1761L44.6587 28.3807C44.8121 27.9332 45.2468 27.5497 46.0011 27.5497C46.717 27.5497 47.109 27.9162 47.109 28.5597V28.5852C47.109 29.0284 46.6445 29.0497 45.4897 29.1733C44.2198 29.3097 43.0053 29.6889 43.0053 31.1634C43.0053 32.4503 43.9471 33.1321 45.1957 33.1321ZM45.5962 31.9986C44.9528 31.9986 44.4925 31.7045 44.4925 31.1378C44.4925 30.5455 45.0082 30.2983 45.6985 30.2003C46.1033 30.1449 46.913 30.0426 47.1133 29.8807V30.652C47.1133 31.3807 46.5252 31.9986 45.5962 31.9986ZM50.2028 33H51.7454V29.152C51.7454 28.321 52.3718 27.733 53.2198 27.733C53.4798 27.733 53.8036 27.7798 53.9357 27.8224V26.4034C53.7951 26.3778 53.5522 26.3608 53.3817 26.3608C52.6317 26.3608 52.0053 26.7869 51.7667 27.5455H51.6985V26.4545H50.2028V33ZM56.5032 24.2727H54.9606V33H56.5032V24.2727ZM60.9446 33.1278C62.8622 33.1278 64.081 31.777 64.081 29.7528C64.081 27.7244 62.8622 26.3693 60.9446 26.3693C59.027 26.3693 57.8082 27.7244 57.8082 29.7528C57.8082 31.777 59.027 33.1278 60.9446 33.1278ZM60.9531 31.892C59.892 31.892 59.3722 30.946 59.3722 29.7486C59.3722 28.5511 59.892 27.5923 60.9531 27.5923C61.9972 27.5923 62.517 28.5511 62.517 29.7486C62.517 30.946 61.9972 31.892 60.9531 31.892ZM68.6587 26.4545H67.3675V24.8864H65.8249V26.4545H64.896V27.6477H65.8249V31.2869C65.8164 32.5185 66.7113 33.1236 67.8704 33.0895C68.3093 33.0767 68.6119 32.9915 68.7781 32.9361L68.5181 31.7301C68.4329 31.7514 68.2582 31.7898 68.0664 31.7898C67.6786 31.7898 67.3675 31.6534 67.3675 31.0312V27.6477H68.6587V26.4545ZM73.2173 26.4545H71.9261V24.8864H70.3835V26.4545H69.4545V27.6477H70.3835V31.2869C70.375 32.5185 71.2699 33.1236 72.429 33.0895C72.8679 33.0767 73.1705 32.9915 73.3366 32.9361L73.0767 31.7301C72.9915 31.7514 72.8168 31.7898 72.625 31.7898C72.2372 31.7898 71.9261 31.6534 71.9261 31.0312V27.6477H73.2173V26.4545ZM77.3349 33.1278C78.8604 33.1278 79.9087 32.3821 80.1815 31.2443L78.7411 31.0824C78.5323 31.6364 78.021 31.9261 77.3562 31.9261C76.359 31.9261 75.6985 31.2699 75.6857 30.1491H80.2454V29.6761C80.2454 27.3793 78.8647 26.3693 77.2539 26.3693C75.3789 26.3693 74.1559 27.7457 74.1559 29.7656C74.1559 31.8196 75.3619 33.1278 77.3349 33.1278ZM75.69 29.1094C75.7369 28.2741 76.3548 27.571 77.2752 27.571C78.1616 27.571 78.7582 28.2188 78.7667 29.1094H75.69Z" fill="white"/>
<g filter="url(#filter1_dd_16_136)">
<path d="M14.0691 18.2383C13.2698 19.0376 11.9072 18.6991 11.5748 17.6188L8.83316 8.70794C8.47906 7.55704 9.55704 6.47906 10.7079 6.83316L19.6187 9.57477C20.6991 9.90718 21.0376 11.2698 20.2383 12.0691L14.0691 18.2383Z" fill="#FF2E57"/>
</g>
<defs>
<filter id="filter0_dd_16_136" x="10" y="10" width="87" height="42" filterUnits="userSpaceOnUse" color-interpolation-filters="sRGB">
<feFlood flood-opacity="0" result="BackgroundImageFix"/>
<feColorMatrix in="SourceAlpha" type="matrix" values="0 0 0 0 0 0 0 0 0 0 0 0 0 0 0 0 0 0 127 0" result="hardAlpha"/>
<feOffset dy="2"/>
<feGaussianBlur stdDeviation="4"/>
<feComposite in2="hardAlpha" operator="out"/>
<feColorMatrix type="matrix" values="0 0 0 0 0.105882 0 0 0 0 0.105882 0 0 0 0 0.101961 0 0 0 0.04 0"/>
<feBlend mode="normal" in2="BackgroundImageFix" result="effect1_dropShadow_16_136"/>
<feColorMatrix in="SourceAlpha" type="matrix" values="0 0 0 0 0 0 0 0 0 0 0 0 0 0 0 0 0 0 127 0" result="hardAlpha"/>
<feOffset dy="2"/>
<feGaussianBlur stdDeviation="4"/>
<feComposite in2="hardAlpha" operator="out"/>
<feColorMatrix type="matrix" values="0 0 0 0 0.105882 0 0 0 0 0.105882 0 0 0 0 0.101961 0 0 0 0.02 0"/>
<feBlend mode="normal" in2="effect1_dropShadow_16_136" result="effect2_dropShadow_16_136"/>
<feBlend mode="normal" in="SourceGraphic" in2="effect2_dropShadow_16_136" result="shape"/>
</filter>
<filter id="filter1_dd_16_136" x="0.764648" y="0.764664" width="27.9138" height="27.9137" filterUnits="userSpaceOnUse" color-interpolation-filters="sRGB">
<feFlood flood-opacity="0" result="BackgroundImageFix"/>
<feColorMatrix in="SourceAlpha" type="matrix" values="0 0 0 0 0 0 0 0 0 0 0 0 0 0 0 0 0 0 127 0" result="hardAlpha"/>
<feOffset dy="2"/>
<feGaussianBlur stdDeviation="4"/>
<feComposite in2="hardAlpha" operator="out"/>
<feColorMatrix type="matrix" values="0 0 0 0 0.105882 0 0 0 0 0.105882 0 0 0 0 0.101961 0 0 0 0.04 0"/>
<feBlend mode="normal" in2="BackgroundImageFix" result="effect1_dropShadow_16_136"/>
<feColorMatrix in="SourceAlpha" type="matrix" values="0 0 0 0 0 0 0 0 0 0 0 0 0 0 0 0 0 0 127 0" result="hardAlpha"/>
<feOffset dy="2"/>
<feGaussianBlur stdDeviation="4"/>
<feComposite in2="hardAlpha" operator="out"/>
<feColorMatrix type="matrix" values="0 0 0 0 0.105882 0 0 0 0 0.105882 0 0 0 0 0.101961 0 0 0 0.02 0"/>
<feBlend mode="normal" in2="effect1_dropShadow_16_136" result="effect2_dropShadow_16_136"/>
<feBlend mode="normal" in="SourceGraphic" in2="effect2_dropShadow_16_136" result="shape"/>
</filter>
</defs>
</svg>
